{"title":"Last Days on Mars(2013)MP-4[DaScubaDude]","uid":12438784,"size":862222476,"categoryP":"video","categoryS":"movies","magnet":"?xt=urn:btih:76bf4e37105f46d2a7e448f8653e5d6f8c8fe3f6&amp;dn=Last+Days+on+Mars%282013%29MP-4%5BDaScubaDude%5D&amp;tr=udp%3A%2F%2Ftracker.openbittorrent.com%3A80&amp;tr=udp%3A%2F%2Fopen.demonii.com%3A1337&amp;tr=udp%3A%2F%2Ftracker.coppersurfer.tk%3A6969&amp;tr=udp%3A%2F%2Fexodus.desync.com%3A6969","seeders":1,"leechers":0,"uploader":"dascuba","files":1,"time":1442550863,"description":"The Last Days on Mars (2013)\nR  |  98 min  |  Horror, Sci-Fi, Thriller  |  19 September 2013 (UK)\n5.5 Your rating:   -/10   Ratings: 5.5/10 from 25,805 users   Metascore: 46/100 \nReviews: 150 user | 115 critic | 21 from Metacritic.com\nA group of astronaut explorers succumb one by one to a mysterious and terrifying force while collecting specimens on Mars.\n\nDirector: Ruairi Robinson\nWriters: Sydney J. Bounds (short story), Clive Dawson (screenplay)\nStars: Liev Schreiber, Elias Koteas, Romola Garai\n\nGeneral\nComplete name              : C:Last Days on MarsTHE_LAST_DAYS_ON_MARS_Title5.mp4\nFormat                                   : MPEG-4\nFormat profile                           : Base Media\nCodec ID                                 : isom\nFile size                                : 822 MiB\nDuration                                 : 1h 38mn\nOverall bit rate mode                    : Constant\nOverall bit rate                         : 1 168 Kbps\nMovie name                               : THE_LAST_DAYS_ON_MARS\nGenre                                    : Science_Fiction\nWriting application                      : Lavf54.6.100\n\nVideo\nID                                       : 1\nFormat                                   : MPEG-4 Visual\nFormat settings, BVOP                    : No\nFormat settings, QPel                    : No\nFormat settings, GMC                     : No warppoints\nFormat settings, Matrix                  : Default (H.263)\nCodec ID                                 : 20\nDuration                                 : 1h 38mn\nBit rate mode                            : Constant\nBit rate                                 : 1 034 Kbps\nWidth                                    : 720 pixels\nHeight                                   : 404 pixels\nDisplay aspect ratio                     : 16:9\nFrame rate mode                          : Constant\nFrame rate                               : 29.970 fps\nColor space                              : YUV\nChroma subsampling                       : 4:2:0\nBit depth                                : 8 bits\nScan type                                : Progressive\nCompression mode                         : Lossy\nBits/(Pixel*Frame)                       : 0.119\nStream size                              : 728 MiB (89%)\nWriting library                          : Lavc54.23.100\n\nAudio\nID                                       : 2\nFormat                                   : MPEG Audio\nFormat version                           : Version 1\nFormat profile                           : Layer 3\nCodec ID                                 : 6B\nDuration                                 : 1h 38mn\nBit rate mode                            : Constant\nBit rate                                 : 128 Kbps\nChannel(s)                               : 2 channels\nSampling rate                            : 44.1 KHz\nCompression mode                         : Lossy\nStream size                              : 90.1 MiB (11%)\nWriting library                          : LAME3.99.5","torrent":{"xt":"urn:btih:76bf4e37105f46d2a7e448f8653e5d6f8c8fe3f6","amp;dn":"Last+Days+on+Mars%282013%29MP-4%5BDaScubaDude%5D","amp;tr":["udp%3A%2F%2Ftracker.openbittorrent.com%3A80","udp%3A%2F%2Fopen.demonii.com%3A1337","udp%3A%2F%2Ftracker.coppersurfer.tk%3A6969","udp%3A%2F%2Fexodus.desync.com%3A6969"],"infoHash":"76bf4e37105f46d2a7e448f8653e5d6f8c8fe3f6","infoHashBuffer":{"type":"Buffer","data":[118,191,78,55,16,95,70,210,167,228,72,248,101,62,93,111,140,143,227,246]},"announce":[],"urlList":[]}}